<?xml version="1.0" encoding="UTF-8"?>
<svg xmlns="http://www.w3.org/2000/svg" xmlns:xlink="http://www.w3.org/1999/xlink" width="26px" height="px" viewBox="0 0 20 20" version="1.1">
<g id="surface1">
<path style=" stroke:none;fill-rule:nonzero;fill-opacity:1;" d="M 13.417969 14.941406 L 11.171875 17.113281 C 10.78125 17.503906 10.242188 17.664062 9.652344 17.664062 C 9.058594 17.664062 8.523438 17.503906 8.132812 17.113281 L 4.519531 13.480469 C 4.132812 13.089844 3.9375 12.519531 3.9375 11.925781 C 3.9375 11.332031 4.132812 10.792969 4.519531 10.40625 L 8.121094 6.753906 C 8.507812 6.367188 9.058594 6.21875 9.652344 6.21875 C 10.242188 6.21875 10.78125 6.378906 11.171875 6.769531 L 13.417969 8.941406 C 13.847656 9.371094 14.558594 9.355469 15.003906 8.910156 C 15.445312 8.464844 15.460938 7.753906 15.03125 7.324219 L 12.863281 5.128906 C 12.296875 4.574219 11.59375 4.1875 10.824219 4.011719 L 12.878906 1.929688 C 13.308594 1.5 13.296875 0.789062 12.847656 0.34375 C 12.402344 -0.101562 11.691406 -0.113281 11.265625 0.3125 L 2.84375 8.730469 C 2.027344 9.550781 1.601562 10.675781 1.601562 11.925781 C 1.601562 13.171875 2.03125 14.339844 2.84375 15.15625 L 6.46875 18.789062 C 7.285156 19.605469 8.414062 20 9.664062 20 C 10.914062 20 12.042969 19.570312 12.859375 18.753906 L 15.03125 16.554688 C 15.464844 16.128906 15.445312 15.417969 15 14.972656 C 14.554688 14.527344 13.84375 14.511719 13.417969 14.941406 Z M 17.34375 10.84375 L 8.886719 10.84375 C 8.304688 10.84375 7.828125 11.34375 7.828125 11.960938 C 7.828125 12.582031 8.304688 13.085938 8.886719 13.085938 L 17.34375 13.085938 C 17.925781 13.085938 18.402344 12.582031 18.402344 11.960938 C 18.402344 11.34375 17.925781 10.84375 17.34375 10.84375 Z M 17.34375 10.84375 "/>
</g>
</svg>
