<?xml version="1.0" encoding="UTF-8"?>
<svg xmlns="http://www.w3.org/2000/svg" xmlns:xlink="http://www.w3.org/1999/xlink" width="26px" height="px" viewBox="0 0 20 20" version="1.1">
<g id="surface1">
<path style=" stroke:none;fill-rule:nonzero;fill-opacity:1;" d="M 10 0.800781 C 4.925781 0.800781 0.800781 4.925781 0.800781 10 C 0.800781 15.074219 4.925781 19.199219 10 19.199219 C 15.074219 19.199219 19.199219 15.074219 19.199219 10 C 19.199219 4.925781 15.074219 0.800781 10 0.800781 Z M 7.199219 14 L 5.601562 14 L 5.601562 8 L 7.199219 8 Z M 6.398438 6.800781 C 5.957031 6.800781 5.601562 6.441406 5.601562 6 C 5.601562 5.558594 5.957031 5.199219 6.398438 5.199219 C 6.84375 5.199219 7.199219 5.558594 7.199219 6 C 7.199219 6.441406 6.84375 6.800781 6.398438 6.800781 Z M 14.800781 14 L 13.199219 14 L 13.199219 11 C 13.199219 10.230469 12.570312 9.601562 11.800781 9.601562 C 11.03125 9.601562 10.398438 10.230469 10.398438 11 L 10.398438 14 L 8.800781 14 L 8.800781 8 L 10.398438 8 L 10.398438 8.726562 C 10.867188 8.277344 11.5 8 12.199219 8 C 13.636719 8 14.800781 9.164062 14.800781 10.601562 Z M 14.800781 14 "/>
</g>
</svg>
